#!OML:ASF \\sashay\E\Suitcase\Project 1\Capture day 1\Session 1\Male1.ASF
:FULLY-SPECIFIED
:DEGREES
1
root 0.303617 17.4755 -36.1851 3.77446 1.36546 -3.26064
lowerback 1.64448 -2.35496 3.92208
upperback -3.08958 -2.94655 1.50453
thorax -4.23167 -1.56522 -0.480479
lowerneck -10.3898 -9.04693 -5.94634
upperneck 13.5776 -12.0874 4.77218
head 6.48731 -5.80419 1.36936
rclavicle -2.41523e-014 1.21259e-014
rhumerus -29.2397 -13.9067 -74.6825
rradius 26.8492
rwrist -15.0934
rhand -19.2948 18.973
rfingers 7.12502
rthumb 7.02055 -10.8906
lclavicle -2.41523e-014 1.21259e-014
lhumerus -41.0616 13.1393 76.1732
lradius 27.4505
lwrist -9.75316
lhand -1.53588 41.9687
lfingers 7.12502
lthumb 24.1185 70.4727
rfemur -9.5679 -0.766654 25.858
rtibia 25.2372
rfoot -19.3588 -5.08374
rtoes 0
lfemur -13.2986 -6.43623 -14.4469
ltibia 31.5524
lfoot -20.9481 5.58247
ltoes 3.52583
2
root 0.310817 17.4699 -36.1808 3.81215 1.51553 -3.26895
lowerback 1.64448 -2.35496 3.92208
upperback -3.08958 -2.94655 1.50453
thorax -4.23167 -1.56522 -0.480479
lowerneck -10.3898 -9.04693 -5.94634
upperneck 13.5776 -12.0874 4.77218
head 6.48731 -5.80419 1.36936
rclavicle -2.41523e-014 1.21259e-014
rhumerus -29.2397 -13.9067 -74.6825
rradius 26.8492
rwrist -15.0934
rhand -19.2948 18.973
rfingers 7.12502
rthumb 7.02055 -10.8906
lclavicle -2.41523e-014 1.21259e-014
lhumerus -41.0616 13.1393 76.1732
lradius 27.4505
lwrist -9.75316
lhand -1.53588 41.9687
lfingers 7.12502
lthumb 24.1185 70.4727
rfemur -9.69696 -0.872782 25.8718
rtibia 25.5261
rfoot -19.5739 -5.18246
rtoes 0
lfemur -13.2735 -6.50278 -14.4439
ltibia 31.1905
lfoot -20.4501 5.67648
ltoes 3.24684
3
root 0.320956 17.4698 -36.1666 4.01305 1.88869 -3.12782
lowerback 1.18973 -2.46812 3.77763
upperback -3.29021 -3.11952 1.52477
thorax -4.18012 -1.64829 -0.384726
lowerneck -10.2793 -9.16291 -5.93618
upperneck 13.8999 -12.2261 4.48831
head 6.55995 -5.89166 1.26344
rclavicle -1.34055e-014 1.55052e-014
rhumerus -29.802 -13.8515 -74.6276
rradius 27.0275
rwrist -15.0264
rhand -19.2933 18.4772
rfingers 7.12502
rthumb 7.02206 -11.3863
lclavicle -1.34055e-014 1.55052e-014
lhumerus -40.7609 12.951 76.3037
lradius 27.4358
lwrist -9.79392
lhand -1.47417 41.5973
lfingers 7.12502
lthumb 24.1776 70.0934
rfemur -9.89604 -1.01361 25.696
rtibia 25.5696
rfoot -19.683 -5.36549
rtoes 0
lfemur -13.3858 -6.57465 -14.6107
ltibia 31.001
lfoot -20.5643 5.53257
ltoes 1.89749
4
root 0.322505 17.4693 -36.1605 4.05102 1.86696 -3.19619
lowerback 1.1004 -2.35598 2.74197
upperback -3.24277 -2.98076 2.36326
thorax -3.97303 -1.53028 1.03897
lowerneck -10.7505 -9.2149 -6.43244
upperneck 13.8453 -12.0567 3.75271
head 6.59805 -5.88239 1.10598
rclavicle -2.82274e-014 1.90833e-014
rhumerus -29.6864 -12.8675 -73.7438
rradius 27.2869
rwrist -15.5944
rhand -19.9061 18.0791
rfingers 7.12502
rthumb 6.43043 -11.8033
lclavicle -2.82274e-014 1.90833e-014
lhumerus -40.1099 14.0071 77.2295
lradius 26.8698
lwrist -10.4802
lhand -1.91125 41.2435
lfingers 7.12502
lthumb 23.7585 69.7948
rfemur -9.95874 -0.70893 25.7842
rtibia 25.726
rfoot -19.8584 -5.62379
rtoes 3.52272
lfemur -13.3202 -6.42525 -14.5308
ltibia 30.7315
lfoot -20.6641 5.68497
ltoes 0.256546
5
root 0.329472 17.4732 -36.151 4.1504 2.06383 -3.10312
lowerback 0.708841 -2.39063 2.36424
upperback -3.04914 -3.05604 2.52572
thorax -3.5211 -1.55213 1.39302
lowerneck -11.0793 -9.23111 -6.66643
upperneck 13.7694 -12.039 3.91595
head 6.65404 -5.86623 1.1795
rclavicle -4.95222e-014 4.21423e-014
rhumerus -29.201 -12.9257 -73.6665
rradius 27.0125
rwrist -15.7481
rhand -19.6946 18.7436
rfingers 7.12502
rthumb 6.63468 -11.1325
lclavicle -4.95222e-014 4.21423e-014
lhumerus -39.2928 14.2946 77.5181
lradius 26.5962
lwrist -10.635
lhand -1.8801 41.1469
lfingers 7.12502
lthumb 23.7884 69.6942
rfemur -10.057 -0.602262 25.6677
rtibia 25.7516
rfoot -19.8845 -5.85035
rtoes 4.67077
lfemur -13.2878 -6.32817 -14.6316
ltibia 30.5171
lfoot -20.558 5.28103
ltoes 2.28592
6
root 0.33814 17.4691 -36.1399 4.21495 2.06729 -2.89674
lowerback 0.429786 -2.407 1.81673
upperback -2.97717 -3.09846 2.74479
thorax -3.24676 -1.55519 1.90775
lowerneck -11.2444 -9.22575 -6.97777
upperneck 13.8397 -11.9494 3.80503
head 6.71264 -5.84365 1.19151
rclavicle 1.08835e-014 -2.62396e-014
rhumerus -29.1207 -12.823 -73.4458
rradius 26.9132
rwrist -15.6306
rhand -19.9084 18.6714
rfingers 7.12502
rthumb 6.42822 -11.211
lclavicle 1.08835e-014 -2.62396e-014
lhumerus -38.963 14.5949 77.892
lradius 26.6575
lwrist -10.8131
lhand -1.62828 41.0315
lfingers 7.12502
lthumb 24.0299 69.5472
rfemur -10.0423 -0.642576 25.4083
rtibia 25.7717
rfoot -19.9951 -5.80781
rtoes 5.78787
lfemur -13.2401 -5.98183 -14.9525
ltibia 30.2919
lfoot -20.4928 5.70783
ltoes -2.40201
7
root 0.348929 17.4769 -36.1299 4.32684 2.18549 -2.80194
lowerback 0.163047 -2.3651 1.5872
upperback -3.01911 -3.05318 2.82566
thorax -3.12387 -1.52579 2.10564
lowerneck -11.3147 -9.34564 -7.03741
upperneck 14.0958 -12.0787 3.62206
head 6.80629 -5.92098 1.11973
rclavicle -2.45251e-014 8.74653e-015
rhumerus -29.3869 -12.1476 -73.5183
rradius 27.1125
rwrist -16.3916
rhand -20.0159 18.2147
rfingers 7.12502
rthumb 6.32445 -11.6709
lclavicle -2.45251e-014 8.74653e-015
lhumerus -38.6994 14.263 78.2988
lradius 26.7075
lwrist -10.634
lhand -2.26104 40.7546
lfingers 7.12502
lthumb 23.423 69.349
rfemur -10.0971 -0.633628 25.277
rtibia 25.6936
rfoot -20.0185 -5.94181
rtoes 6.33887
lfemur -13.2662 -6.07254 -15.0798
ltibia 30.1421
lfoot -20.455 5.44837
ltoes -0.305806
8
root 0.364405 17.4831 -36.1168 4.43825 2.35778 -3.00582
lowerback -0.070178 -2.37436 1.8683
upperback -3.10806 -3.06456 2.85927
thorax -3.09753 -1.53838 1.97581
lowerneck -11.5551 -9.4235 -6.93952
upperneck 14.6371 -12.1518 3.28099
head 6.99813 -5.97234 0.966275
rclavicle -3.10601e-014 2.98177e-014
rhumerus -29.6339 -12.6909 -73.3984
rradius 26.8686
rwrist -15.9038
rhand -19.7026 18.7235
rfingers 7.12502
rthumb 6.6269 -11.1528
lclavicle -3.10601e-014 2.98177e-014
lhumerus -38.3588 14.3286 78.247
lradius 26.4602
lwrist -10.7803
lhand -2.4411 40.184
lfingers 7.12502
lthumb 23.2503 68.8004
rfemur -10.1689 -0.70352 25.4569
rtibia 25.7103
rfoot -20.0418 -6.02589
rtoes 6.50512
lfemur -13.2415 -6.33709 -14.9158
ltibia 29.9516
lfoot -20.3524 5.67166
ltoes -1.21553
9
root 0.373368 17.4781 -36.1138 4.5187 2.33913 -3.10926
lowerback 0.111629 -2.40219 2.24506
upperback -3.37928 -3.08248 2.70424
thorax -3.50981 -1.5605 1.62615
lowerneck -11.3176 -9.22502 -7.1619
upperneck 14.7485 -11.9507 3.77621
head 7.02887 -5.85108 1.18591
rclavicle -6.59095e-014 2.3059e-014
rhumerus -30.1267 -12.9014 -73.6243
rradius 26.4795
rwrist -15.1938
rhand -19.8158 19.0241
rfingers 7.12502
rthumb 6.51761 -10.8556
lclavicle -6.59095e-014 2.3059e-014
lhumerus -38.4755 13.8861 78.0575
lradius 26.707
lwrist -10.3765
lhand -2.2992 41.3138
lfingers 7.12502
lthumb 23.3864 69.9129
rfemur -10.2298 -0.627027 25.5278
rtibia 25.5853
rfoot -19.9417 -6.04704
rtoes 6.92757
lfemur -13.2534 -6.29389 -14.8663
ltibia 29.8783
lfoot -20.3141 5.92251
ltoes -1.78128
10
root 0.38448 17.4853 -36.1062 4.54308 2.39697 -2.95574
lowerback 0.329951 -2.50087 2.32161
upperback -3.63044 -3.20187 2.50308
thorax -3.90868 -1.62694 1.40128
lowerneck -11.1906 -9.06472 -6.78635
upperneck 14.9374 -11.7675 3.48978
head 7.01652 -5.76922 1.06259
rclavicle 1.79403e-014 8.34896e-015
rhumerus -30.5364 -12.9404 -73.9776
rradius 26.2188
rwrist -14.9584
rhand -19.6633 18.9955
rfingers 7.12502
rthumb 6.66486 -10.8796
lclavicle 1.79403e-014 8.34896e-015
lhumerus -38.7794 13.7632 77.7099
lradius 27.0107
lwrist -10.4056
lhand -2.89061 40.3605
lfingers 7.12502
lthumb 22.8189 69.0307
rfemur -10.1698 -0.700862 25.332
rtibia 25.5692
rfoot -19.9702 -6.10941
rtoes 7.10274
lfemur -13.1915 -6.44437 -15.0912
ltibia 29.7485
lfoot -20.4098 6.13639
ltoes -3.27054
11
root 0.389452 17.4829 -36.1031 4.59074 2.32223 -2.9243
lowerback 0.26781 -2.51222 2.14919
upperback -3.59111 -3.22255 2.58547
thorax -3.81789 -1.63027 1.57783
lowerneck -11.6207 -9.01886 -7.15395
upperneck 15.1613 -11.663 3.74927
head 7.19704 -5.70793 1.18634
rclavicle 3.62782e-015 3.57812e-015
rhumerus -30.5772 -12.7321 -74.0545
rradius 26.1026
rwrist -14.9996
rhand -19.826 18.7595
rfingers 7.12502
rthumb 6.50779 -11.1205
lclavicle 3.62782e-015 3.57812e-015
lhumerus -38.339 13.8258 77.8528
lradius 27.0658
lwrist -9.94702
lhand -2.75744 40.7799
lfingers 7.12502
lthumb 22.9467 69.4343
rfemur -10.2637 -0.576997 25.2724
rtibia 25.5839
rfoot -19.8772 -6.22683
rtoes 7.79211
lfemur -13.1225 -6.30267 -15.1603
ltibia 29.6394
lfoot -20.2805 6.12582
ltoes -2.4655
